<svg fill="none" height="24" viewBox="0 0 24 24" width="24" xmlns="http://www.w3.org/2000/svg"><g clip-rule="evenodd" fill="#000" fill-rule="evenodd"><path d="m6 20c0-.5523.44772-1 1-1h10c.5523 0 1 .4477 1 1s-.4477 1-1 1h-10c-.55228 0-1-.4477-1-1z"/><path d="m3 6c0-1.65685 1.34315-3 3-3h12c1.6569 0 3 1.34315 3 3v8c0 1.6569-1.3431 3-3 3h-12c-1.65685 0-3-1.3431-3-3zm3-1c-.55228 0-1 .44772-1 1v8c0 .5523.44772 1 1 1h12c.5523 0 1-.4477 1-1v-8c0-.55228-.4477-1-1-1z"/><path d="m11 20v-4h2v4z"/><path d="m16 7c.5523 0 1 .44772 1 1v4c0 .5523-.4477 1-1 1s-1-.4477-1-1v-4c0-.55228.4477-1 1-1z"/><path d="m12 9c.5523 0 1 .44772 1 1v2c0 .5523-.4477 1-1 1s-1-.4477-1-1v-2c0-.55228.4477-1 1-1z"/><path d="m8 10c.55228 0 1 .4477 1 1v1c0 .5523-.44772 1-1 1s-1-.4477-1-1v-1c0-.5523.44772-1 1-1z"/></g></svg>